<?xml version="1.0" encoding="UTF-8" standalone="no"?>
<!DOCTYPE svg PUBLIC "-//W3C//DTD SVG 1.1//EN"
 "http://www.w3.org/Graphics/SVG/1.1/DTD/svg11.dtd">
<!-- Generated by graphviz version 2.38.0 (20140413.2041)
 -->
<!-- Title: G Pages: 1 -->
<svg width="145pt" height="132pt"
 viewBox="0.00 0.00 145.00 132.00" xmlns="http://www.w3.org/2000/svg" xmlns:xlink="http://www.w3.org/1999/xlink">
<g id="graph0" class="graph" transform="scale(1 1) rotate(0) translate(4 128)">
<title>G</title>
<polygon fill="white" stroke="none" points="-4,4 -4,-128 141,-128 141,4 -4,4"/>
<g id="clust1" class="cluster"><title>cluster_Global</title>
<path fill="none" stroke="gray" d="M12,-8C12,-8 125,-8 125,-8 131,-8 137,-14 137,-20 137,-20 137,-104 137,-104 137,-110 131,-116 125,-116 125,-116 12,-116 12,-116 6,-116 0,-110 0,-104 0,-104 0,-20 0,-20 0,-14 6,-8 12,-8"/>
<text text-anchor="middle" x="68.5" y="-103.2" font-family="Times,serif" font-size="11.00" fill="gray">Global</text>
</g>
<g id="clust2" class="cluster"><title>cluster_\PersonalityInsightsPHP</title>
<path fill="none" stroke="gray" d="M20,-16C20,-16 117,-16 117,-16 123,-16 129,-22 129,-28 129,-28 129,-76 129,-76 129,-82 123,-88 117,-88 117,-88 20,-88 20,-88 14,-88 8,-82 8,-76 8,-76 8,-28 8,-28 8,-22 14,-16 20,-16"/>
<text text-anchor="middle" x="68.5" y="-75.2" font-family="Times,serif" font-size="11.00" fill="gray">PersonalityInsightsPHP</text>
</g>
<!-- \\PersonalityInsightsPHP\\Config -->
<g id="node1" class="node"><title>\\PersonalityInsightsPHP\\Config</title>
<polygon fill="none" stroke="black" points="97,-60 40,-60 40,-24 97,-24 97,-60"/>
<text text-anchor="middle" x="68.5" y="-39.2" font-family="Courier,monospace" font-size="11.00">Config</text>
</g>
</g>
</svg>
